<svg width="20" height="21" viewBox="0 0 20 21" fill="none" xmlns="http://www.w3.org/2000/svg">
<g clip-path="url(#clip0_386_2872)">
<path d="M14.7143 14.3806L11.1785 17.9164C10.866 18.2286 10.4423 18.404 10.0006 18.404C9.55885 18.404 9.13518 18.2286 8.82267 17.9164L5.286 14.3806C4.35368 13.4482 3.71878 12.2603 3.46157 10.9671C3.20437 9.67394 3.33641 8.33352 3.841 7.11536C4.3456 5.89721 5.20008 4.85604 6.2964 4.12351C7.39272 3.39098 8.68164 3 10.0002 3C11.3187 3 12.6076 3.39098 13.7039 4.12351C14.8003 4.85604 15.6547 5.89721 16.1593 7.11536C16.6639 8.33352 16.796 9.67394 16.5388 10.9671C16.2816 12.2603 15.6466 13.4482 14.7143 14.3806Z" fill="#D20C0C" stroke="#D20C0C" stroke-width="1.5" stroke-linecap="round" stroke-linejoin="round"/>
<path d="M10 12.167C11.3807 12.167 12.5 11.0477 12.5 9.66699C12.5 8.28628 11.3807 7.16699 10 7.16699C8.61929 7.16699 7.5 8.28628 7.5 9.66699C7.5 11.0477 8.61929 12.167 10 12.167Z" fill="#F4F4F4" stroke="#F4F4F4" stroke-width="1.5" stroke-linecap="round" stroke-linejoin="round"/>
</g>
<defs>
<clipPath id="clip0_386_2872">
<rect width="20" height="20" fill="white" transform="translate(0 0.5)"/>
</clipPath>
</defs>
</svg>
